<svg xmlns="http://www.w3.org/2000/svg" version="1.1" xmlns:xlink="http://www.w3.org/1999/xlink" xmlns:svgjs="http://svgjs.dev/svgjs" width="128" height="128" viewBox="0 0 128 128"><g transform="matrix(0.8046875,0,0,0.8046875,12.333870967741937,12.333870967741937)"><svg viewBox="0 0 155 155" data-background-color="#0b022d" preserveAspectRatio="xMidYMid meet" height="128" width="128" xmlns="http://www.w3.org/2000/svg" xmlns:xlink="http://www.w3.org/1999/xlink"><g id="tight-bounds" transform="matrix(1,0,0,1,0.25,0.25)"><svg viewBox="0 0 154.5 154.5" height="154.5" width="154.5"><g><svg></svg></g><g><svg viewBox="0 0 154.5 154.5" height="154.5" width="154.5"><mask id="SvgjsMask1401"><rect width="154.5" height="154.5" fill="white"></rect><g transform="matrix(1,0,0,1,46.26073711453745,43.83165)" id="clone"><svg viewBox="0 0 61.97852577092511 66.8367" height="66.8367" width="61.97852577092511"><g><svg viewBox="0 0 61.97852577092511 66.8367" height="66.8367" width="61.97852577092511"><g><svg viewBox="0 0 61.97852577092511 66.8367" height="66.8367" width="61.97852577092511"><g id="SvgjsG1400"><svg viewBox="0 0 61.97852577092511 66.8367" height="66.8367" width="61.97852577092511" id="SvgjsSvg1399"><g><svg viewBox="0 0 61.97852577092511 66.8367" height="66.8367" width="61.97852577092511"><g transform="matrix(1,0,0,1,0,0)"><svg width="61.97852577092511" viewBox="-3.4 -19.65 22.05 23.7" height="66.8367" data-palette-color="#f7fff7"><path d="M-0.4 0.4L-0.4 0.3 2.4-12.35Q2.2-13.05 1.3-15.05L1.3-15.05Q1.3-15.4 2.15-15.7L2.15-15.7Q4.65-16.65 5.38-16.65 6.1-16.65 6.1-16.2L6.1-16.2Q4.25-11.6 3.55-9.8L3.55-9.8Q3.55-9.65 3.55-9.5L3.55-9.5Q3.55-7.95 3.1-7.95L3.1-7.95Q3-7.95 2.95-8.1L2.95-8.1Q1.9-4.95 1.5-3.5L1.5-3.5Q3.8-7.25 6.2-10.05L6.2-10.05Q9.95-14.4 12.4-14.4L12.4-14.4Q13.55-14.4 13.55-13.5L13.55-13.5Q13.55-13.15 10.65-2.5L10.65-2.5Q13.55-4.65 15.15-7.1L15.15-7.1Q15.4-7.4 15.53-7.4 15.65-7.4 15.65-7.25 15.65-7.1 15.5-6.85L15.5-6.85Q13.3-2.95 10.15-0.65L10.15-0.65Q9.9-0.35 9.53-0.35 9.15-0.35 9.15-0.8 9.15-1.25 9.75-4.2 10.35-7.15 10.63-8.7 10.9-10.25 11-12.6L11-12.6Q8.95-11.6 5.95-8.3 2.95-5 1.98-3.15 1-1.3 0.73-0.13 0.45 1.05 0.03 1.05-0.4 1.05-0.4 0.4L-0.4 0.4ZM2.7-13.7L3.15-15.35Q2.9-15.15 2.2-14.85L2.2-14.85 2.7-13.7Z" opacity="1" transform="matrix(1,0,0,1,0,0)" fill="black" class="wordmark-text-0" id="SvgjsPath1398" stroke-width="5" stroke="black" stroke-linejoin="round"></path></svg></g></svg></g></svg></g></svg></g></svg></g></svg></g></mask><g transform="matrix(1,0,0,1,46.26073711453745,43.83165)"><svg viewBox="0 0 61.97852577092511 66.8367" height="66.8367" width="61.97852577092511"><g><svg viewBox="0 0 61.97852577092511 66.8367" height="66.8367" width="61.97852577092511"><g><svg viewBox="0 0 61.97852577092511 66.8367" height="66.8367" width="61.97852577092511"><g id="textblocktransform"><svg viewBox="0 0 61.97852577092511 66.8367" height="66.8367" width="61.97852577092511" id="textblock"><g><svg viewBox="0 0 61.97852577092511 66.8367" height="66.8367" width="61.97852577092511"><g transform="matrix(1,0,0,1,0,0)"><svg width="61.97852577092511" viewBox="-3.4 -19.65 22.05 23.7" height="66.8367" data-palette-color="#f7fff7"><path d="M-0.4 0.4L-0.4 0.3 2.4-12.35Q2.2-13.05 1.3-15.05L1.3-15.05Q1.3-15.4 2.15-15.7L2.15-15.7Q4.65-16.65 5.38-16.65 6.1-16.65 6.1-16.2L6.1-16.2Q4.25-11.6 3.55-9.8L3.55-9.8Q3.55-9.65 3.55-9.5L3.55-9.5Q3.55-7.95 3.1-7.95L3.1-7.95Q3-7.95 2.95-8.1L2.95-8.1Q1.9-4.95 1.5-3.5L1.5-3.5Q3.8-7.25 6.2-10.05L6.2-10.05Q9.95-14.4 12.4-14.4L12.4-14.4Q13.55-14.4 13.55-13.5L13.55-13.5Q13.55-13.15 10.65-2.5L10.65-2.5Q13.55-4.65 15.15-7.1L15.15-7.1Q15.4-7.4 15.53-7.4 15.65-7.4 15.65-7.25 15.65-7.1 15.5-6.85L15.5-6.85Q13.3-2.95 10.15-0.65L10.15-0.65Q9.9-0.35 9.53-0.35 9.15-0.35 9.15-0.8 9.15-1.25 9.75-4.2 10.35-7.15 10.63-8.7 10.9-10.25 11-12.6L11-12.6Q8.95-11.6 5.95-8.3 2.95-5 1.98-3.15 1-1.3 0.73-0.13 0.45 1.05 0.03 1.05-0.4 1.05-0.4 0.4L-0.4 0.4ZM2.7-13.7L3.15-15.35Q2.9-15.15 2.2-14.85L2.2-14.85 2.7-13.7Z" opacity="1" transform="matrix(1,0,0,1,0,0)" fill="#f7fff7" class="wordmark-text-0" data-fill-palette-color="primary" id="text-0"></path></svg></g></svg></g></svg></g></svg></g></svg></g></svg></g><g><path d="M0 154.5v-154.5h154.5v154.5zM149.8 149.8v-145.1h-145.1v145.1z" fill="#f7fff7" fill-rule="nonzero" stroke="none" stroke-width="1" stroke-linecap="butt" stroke-linejoin="miter" stroke-miterlimit="10" stroke-dasharray="" stroke-dashoffset="0" font-family="none" font-weight="none" font-size="none" text-anchor="none" style="mix-blend-mode: normal" data-fill-palette-color="tertiary"></path></g></svg></g><defs></defs></svg><rect width="154.5" height="154.5" fill="none" stroke="none" visibility="hidden"></rect></g></svg></g></svg>