<svg xmlns="http://www.w3.org/2000/svg" version="1.1" xmlns:xlink="http://www.w3.org/1999/xlink" xmlns:svgjs="http://svgjs.dev/svgjs" width="1500" height="935" viewBox="0 0 1500 935"><g transform="matrix(1,0,0,1,-0.9090909090909918,0.3785425101214628)"><svg viewBox="0 0 396 247" data-background-color="#0b022d" preserveAspectRatio="xMidYMid meet" height="935" width="1500" xmlns="http://www.w3.org/2000/svg" xmlns:xlink="http://www.w3.org/1999/xlink"><g id="tight-bounds" transform="matrix(1,0,0,1,0.2400000000000091,-0.09999999999999432)"><svg viewBox="0 0 395.52 247.2" height="247.2" width="395.52"><g><svg></svg></g><g><svg viewBox="0 0 395.52 247.2" height="247.2" width="395.52"><mask id="7f143fd6-c6ff-4b60-81e3-ce7c182ff5c2"><rect width="395.52" height="247.2" fill="white"></rect><g transform="matrix(1,0,0,1,19.974844606946988,37.08)" id="clone"><svg viewBox="0 0 355.570310786106 173.04" height="173.04" width="355.570310786106"><g><svg viewBox="0 0 355.570310786106 173.04" height="173.04" width="355.570310786106"><g><svg viewBox="0 0 355.570310786106 173.04" height="173.04" width="355.570310786106"><g><svg viewBox="0 0 355.570310786106 173.04" height="173.04" width="355.570310786106"><g id="SvgjsG3136"><svg viewBox="0 0 355.570310786106 173.04" height="173.04" width="355.570310786106" id="SvgjsSvg3135"><g><svg viewBox="0 0 355.570310786106 173.04" height="173.04" width="355.570310786106"><g transform="matrix(1,0,0,1,0,0)"><svg width="355.570310786106" viewBox="-3.4 -23.95 57.19 28.349999999999998" height="173.04" data-palette-color="#f7fff7"><path d="M-0.4 0.4L-0.4 0.3 2.4-12.35Q2.2-13.05 1.3-15.05L1.3-15.05Q1.3-15.4 2.15-15.7L2.15-15.7Q4.65-16.65 5.38-16.65 6.1-16.65 6.1-16.2L6.1-16.2Q4.25-11.6 3.55-9.8L3.55-9.8Q3.55-9.65 3.55-9.5L3.55-9.5Q3.55-7.95 3.1-7.95L3.1-7.95Q3-7.95 2.95-8.1L2.95-8.1Q1.9-4.95 1.5-3.5L1.5-3.5Q3.8-7.25 6.2-10.05L6.2-10.05Q9.95-14.4 12.4-14.4L12.4-14.4Q13.55-14.4 13.55-13.5L13.55-13.5Q13.55-13.15 10.65-2.5L10.65-2.5Q13.55-4.65 15.15-7.1L15.15-7.1Q15.4-7.4 15.53-7.4 15.65-7.4 15.65-7.25 15.65-7.1 15.5-6.85L15.5-6.85Q13.3-2.95 10.15-0.65L10.15-0.65Q9.9-0.35 9.53-0.35 9.15-0.35 9.15-0.8 9.15-1.25 9.75-4.2 10.35-7.15 10.63-8.7 10.9-10.25 11-12.6L11-12.6Q8.95-11.6 5.95-8.3 2.95-5 1.98-3.15 1-1.3 0.73-0.13 0.45 1.05 0.03 1.05-0.4 1.05-0.4 0.4L-0.4 0.4ZM2.7-13.7L3.15-15.35Q2.9-15.15 2.2-14.85L2.2-14.85 2.7-13.7ZM23.95-6.85L23.95-6.85Q24.05-6.85 24.05-6.75L24.05-6.75Q24.05-5.9 21.3-3L21.3-3Q19.1-0.8 17.95-0.8L17.95-0.8Q15.4-0.8 15.4-3.35L15.4-3.35Q15.4-5.25 16.4-8.15L16.4-8.15 15.5-6.75Q14.85-5.65 14.6-5.65L14.6-5.65Q14.5-5.65 14.5-5.93 14.5-6.2 15.25-7.2 16-8.2 17.45-11.3L17.45-11.3Q17.85-12.35 18.55-13.65L18.55-13.65Q18.8-14.1 19.72-14.1 20.65-14.1 20.65-13.6 20.65-13.1 20.15-12.1 19.65-11.1 19.3-10.95L19.3-10.95Q16.7-5.75 16.7-3.3L16.7-3.3Q16.7-1.65 17.8-1.65L17.8-1.65Q19.6-1.65 21.75-4.25L21.75-4.25Q22.65-5.3 22.85-5.53 23.05-5.75 23.25-6 23.45-6.25 23.6-6.4L23.6-6.4Q23.85-6.65 23.95-6.85ZM22.4-20.45Q23.5-20.95 23.75-20.95 24-20.95 24-20.83 24-20.7 22.85-19.4L22.85-19.4 22.1-17.85Q21.65-16.85 20.95-16.85L20.95-16.85Q19.95-16.85 19.95-17.9L19.95-17.9Q19.95-18.4 20.62-19.18 21.3-19.95 22.4-20.45ZM35.55-13.45L35.55-13.45Q35.55-12.55 35.15-11.33 34.75-10.1 34.09-10.1 33.45-10.1 33.45-10.85L33.45-10.85Q33.45-11.15 33.75-12.2L33.75-12.2Q34.09-13.25 34.09-13.95L34.09-13.95Q34.09-16.2 32.3-16.2L32.3-16.2Q31.4-16.2 30.02-15.48 28.65-14.75 28.5-14.75 28.35-14.75 28.35-14.9L28.35-14.9Q28.35-15.6 30.07-16.15 31.8-16.7 32.84-16.7L32.84-16.7Q35.55-16.7 35.55-13.45ZM26.4 1.4L26.4 1.4Q22.95 1.4 22.95-2.5 22.95-6.4 25.7-10.78 28.45-15.15 32.05-15.15L32.05-15.15Q32.59-15.15 32.59-14.98 32.59-14.8 31.6-14.2L31.6-14.2Q29.15-12.7 27.17-9.55 25.2-6.4 25.2-3.8L25.2-3.8Q25.2 0.25 28.25 0.25L28.25 0.25Q30.1 0.25 32.34-1.2L32.34-1.2Q35.45-3.2 37.25-6.05L37.25-6.05Q37.7-6.8 37.95-6.8L37.95-6.8 38.05-6.7Q38.05-6.5 37.59-5.85L37.59-5.85Q35.8-3.1 32.52-0.85 29.25 1.4 26.4 1.4ZM49.94-9.8L49.94-9.8 50.09-10.75Q50.09-11.55 49.57-12.08 49.04-12.6 48.34-12.6L48.34-12.6Q47.74-6.5 45.39-3.25L45.39-3.25 46.94-3.25Q46.29-2.85 45.97-2.85 45.64-2.85 45.52-2.9 45.39-2.95 45.24-2.95L45.24-2.95Q45.29-2.9 44.97-2.63 44.64-2.35 43.09-1 41.54 0.35 40.19 0.35L40.19 0.35Q38.24 0.35 38.24-2.15L38.24-2.15Q38.24-5.2 40.54-8.4L40.54-8.4Q39.74-10.35 39.74-12.53 39.74-14.7 40.59-16.3L40.59-16.3Q42.24-19.45 44.69-19.45L44.69-19.45Q47.79-19.45 48.29-14.15L48.29-14.15Q50.79-14.05 50.79-11.55L50.79-11.55Q50.79-9.5 50.14-9.5L50.14-9.5Q49.94-9.5 49.94-9.8ZM44.74-18.35L44.74-18.35Q43.14-18.35 41.79-15.2L41.79-15.2Q40.94-13.3 40.94-11.55 40.94-9.8 41.09-8.95L41.09-8.95Q44.14-13.05 47.49-14.05L47.49-14.05Q46.49-18.35 44.74-18.35ZM47.54-12.65L47.54-12.65Q46.44-12.5 44.12-10.63 41.79-8.75 41.24-7.65L41.24-7.65Q42.29-3.85 43.79-3.5L43.79-3.5Q44.99-4.6 46.27-7.85 47.54-11.1 47.54-12.65ZM40.89-7.2L40.89-7.2Q39.24-4.4 39.24-2.78 39.24-1.15 40.34-1.15L40.34-1.15Q41.69-1.15 43.59-3.25L43.59-3.25Q41.94-3.45 40.89-7.2Z" opacity="1" transform="matrix(1,0,0,1,0,0)" fill="black" class="wordmark-text-0" id="SvgjsPath3134" stroke-width="5" stroke="black" stroke-linejoin="round"></path></svg></g></svg></g></svg></g></svg></g></svg></g></svg></g></svg></g></mask><g mask="url(#7f143fd6-c6ff-4b60-81e3-ce7c182ff5c2)"><g><path d="M43.333 199.796v0c-3.878 8.725-5.816 15.763-5.817 21.114 0 5.312 1.803 10.295 5.41 14.948 3.567 4.653 8.356 6.98 14.366 6.98v0c23.072 0 46.241-11.342 69.507-34.027v0c20.358-20.164 37.419-44.884 51.185-74.16 13.766-29.276 20.648-55.063 20.648-77.359v0c0-2.133-0.097-3.781-0.29-4.944v0c-3.878 1.745-8.531 3.005-13.96 3.781v0c-3.878 19.388-10.315 39.882-19.311 61.48-9.035 21.637-20.086 42.77-33.153 63.4-13.106 20.668-26.542 35.655-40.309 44.961v0c-7.755 4.847-14.541 7.271-20.357 7.27v0c-1.939 0-2.908-0.543-2.908-1.628 0-1.047 1.125-1.764 3.373-2.152 2.21-0.388 5.739-1.357 10.586-2.908v0c16.092-7.174 32.475-23.848 49.149-50.022v0c24.041-38.001 40.424-77.941 49.149-119.819v0l-35.771 4.362c-19.97 1.939-35.384 4.265-46.241 6.98v0c-21.909 5.816-32.863 14.347-32.863 25.592v0c0 8.337 4.265 16.965 12.796 25.883v0c7.949 7.561 16.48 12.505 25.593 14.832v0c1.163 0.194 1.745 0.485 1.745 0.873v0c0 0.776-0.776 1.163-2.327 1.163v0c-10.664 0-20.455-4.459-29.373-13.378v0c-8.725-8.919-13.087-19-13.087-30.245 0-11.245 8.531-20.745 25.592-28.501v0c13.766-6.398 28.753-10.857 44.962-13.378 16.17-2.52 33.367-5.041 51.592-7.561v0c1.551-12.021 2.327-25.786 2.326-41.297v0c0-1.357 0.582-2.036 1.745-2.036v0c0.969 0 1.454 4.886 1.454 14.658 0 9.81-0.679 19.175-2.035 28.093v0c3.296-0.582 7.271-1.551 11.923-2.908v0c0.969-1.357 2.327-2.036 4.072-2.036 1.745 0 2.811 1.454 3.199 4.362v0c0.582 5.623 3.393 22.393 8.434 50.313v0c7.174 40.521 15.704 71.736 25.592 93.645v0c3.878-8.531 8.57-27.105 14.076-55.722 5.545-28.578 10.547-49.169 15.007-61.771v0c9.694-27.144 23.363-45.659 41.006-55.547v0c5.235-2.908 10.47-4.362 15.704-4.362v0c8.919 0 17.449 5.138 25.593 15.413v0c8.143 9.694 12.215 18.904 12.214 27.629v0c0 0.776-0.291 1.163-0.872 1.163-0.582 0-1.163-0.776-1.745-2.327v0c-2.327-7.949-6.049-14.599-11.168-19.95-5.157-5.312-11.614-7.969-19.368-7.969v0c-4.072 0-8.24 1.066-12.506 3.199v0c-17.449 7.949-31.506 25.205-42.169 51.767v0c-4.847 12.215-9.442 27.473-13.785 45.776-4.382 18.341-6.96 29.257-7.736 32.746v0c-4.072 15.511-7.852 27.337-11.342 35.481v0c7.949 16.286 16.771 24.429 26.465 24.429v0c5.429 0 11.148-2.424 17.158-7.271v0c6.398-5.041 9.306-7.561 8.725-7.561v0c0.388 0 0.582 0.427 0.582 1.28 0 0.892-0.582 1.726-1.745 2.501v0c-11.245 11.245-22.141 16.868-32.689 16.867-10.586 0-20.047-5.816-28.384-17.449v0c-2.133 1.163-4.75 1.745-7.853 1.745-3.102 0-4.653-1.163-4.653-3.49v0c0-0.582 1.163-1.105 3.49-1.57 2.327-0.504 4.168-1.144 5.526-1.92v0c-8.337-13.184-14.541-32.669-18.613-58.455v0c-3.49-34.123-5.526-54.869-6.107-62.237v0c-4.653 26.368-14.774 52.678-30.362 78.93-15.627 26.29-33.852 47.831-54.675 64.621-20.862 16.751-42.053 25.127-63.574 25.127v0c-7.174 0-12.99-1.978-17.449-5.933-4.459-3.994-6.689-9.869-6.689-17.624 0-7.755 3.005-15.801 9.015-24.138v0c0.582-0.582 1.125-0.872 1.629-0.873 0.465 0 0.698 0.388 0.698 1.164z" fill="#f7fff7" fill-rule="nonzero" stroke="none" stroke-width="1" stroke-linecap="butt" stroke-linejoin="miter" stroke-miterlimit="10" stroke-dasharray="" stroke-dashoffset="0" font-family="none" font-weight="none" font-size="none" text-anchor="none" style="mix-blend-mode: normal" data-fill-palette-color="tertiary"></path></g></g><g transform="matrix(1,0,0,1,19.974844606946988,37.08)"><svg viewBox="0 0 355.570310786106 173.04" height="173.04" width="355.570310786106"><g><svg viewBox="0 0 355.570310786106 173.04" height="173.04" width="355.570310786106"><g><svg viewBox="0 0 355.570310786106 173.04" height="173.04" width="355.570310786106"><g><svg viewBox="0 0 355.570310786106 173.04" height="173.04" width="355.570310786106"><g id="textblocktransform"><svg viewBox="0 0 355.570310786106 173.04" height="173.04" width="355.570310786106" id="textblock"><g><svg viewBox="0 0 355.570310786106 173.04" height="173.04" width="355.570310786106"><g transform="matrix(1,0,0,1,0,0)"><svg width="355.570310786106" viewBox="-3.4 -23.95 57.19 28.349999999999998" height="173.04" data-palette-color="#f7fff7"><path d="M-0.4 0.4L-0.4 0.3 2.4-12.35Q2.2-13.05 1.3-15.05L1.3-15.05Q1.3-15.4 2.15-15.7L2.15-15.7Q4.65-16.65 5.38-16.65 6.1-16.65 6.1-16.2L6.1-16.2Q4.25-11.6 3.55-9.8L3.55-9.8Q3.55-9.65 3.55-9.5L3.55-9.5Q3.55-7.95 3.1-7.95L3.1-7.95Q3-7.95 2.95-8.1L2.95-8.1Q1.9-4.95 1.5-3.5L1.5-3.5Q3.8-7.25 6.2-10.05L6.2-10.05Q9.95-14.4 12.4-14.4L12.4-14.4Q13.55-14.4 13.55-13.5L13.55-13.5Q13.55-13.15 10.65-2.5L10.65-2.5Q13.55-4.65 15.15-7.1L15.15-7.1Q15.4-7.4 15.53-7.4 15.65-7.4 15.65-7.25 15.65-7.1 15.5-6.85L15.5-6.85Q13.3-2.95 10.15-0.65L10.15-0.65Q9.9-0.35 9.53-0.35 9.15-0.35 9.15-0.8 9.15-1.25 9.75-4.2 10.35-7.15 10.63-8.7 10.9-10.25 11-12.6L11-12.6Q8.95-11.6 5.95-8.3 2.95-5 1.98-3.15 1-1.3 0.73-0.13 0.45 1.05 0.03 1.05-0.4 1.05-0.4 0.4L-0.4 0.4ZM2.7-13.7L3.15-15.35Q2.9-15.15 2.2-14.85L2.2-14.85 2.7-13.7ZM23.95-6.85L23.95-6.85Q24.05-6.85 24.05-6.75L24.05-6.75Q24.05-5.9 21.3-3L21.3-3Q19.1-0.8 17.95-0.8L17.95-0.8Q15.4-0.8 15.4-3.35L15.4-3.35Q15.4-5.25 16.4-8.15L16.4-8.15 15.5-6.75Q14.85-5.65 14.6-5.65L14.6-5.65Q14.5-5.65 14.5-5.93 14.5-6.2 15.25-7.2 16-8.2 17.45-11.3L17.45-11.3Q17.85-12.35 18.55-13.65L18.55-13.65Q18.8-14.1 19.72-14.1 20.65-14.1 20.65-13.6 20.65-13.1 20.15-12.1 19.65-11.1 19.3-10.95L19.3-10.95Q16.7-5.75 16.7-3.3L16.7-3.3Q16.7-1.65 17.8-1.65L17.8-1.65Q19.6-1.65 21.75-4.25L21.75-4.25Q22.65-5.3 22.85-5.53 23.05-5.75 23.25-6 23.45-6.25 23.6-6.4L23.6-6.4Q23.85-6.65 23.95-6.85ZM22.4-20.45Q23.5-20.95 23.75-20.95 24-20.95 24-20.83 24-20.7 22.85-19.4L22.85-19.4 22.1-17.85Q21.65-16.85 20.95-16.85L20.95-16.85Q19.95-16.85 19.95-17.9L19.95-17.9Q19.95-18.4 20.62-19.18 21.3-19.95 22.4-20.45ZM35.55-13.45L35.55-13.45Q35.55-12.55 35.15-11.33 34.75-10.1 34.09-10.1 33.45-10.1 33.45-10.85L33.45-10.85Q33.45-11.15 33.75-12.2L33.75-12.2Q34.09-13.25 34.09-13.95L34.09-13.95Q34.09-16.2 32.3-16.2L32.3-16.2Q31.4-16.2 30.02-15.48 28.65-14.75 28.5-14.75 28.35-14.75 28.35-14.9L28.35-14.9Q28.35-15.6 30.07-16.15 31.8-16.7 32.84-16.7L32.84-16.7Q35.55-16.7 35.55-13.45ZM26.4 1.4L26.4 1.4Q22.95 1.4 22.95-2.5 22.95-6.4 25.7-10.78 28.45-15.15 32.05-15.15L32.05-15.15Q32.59-15.15 32.59-14.98 32.59-14.8 31.6-14.2L31.6-14.2Q29.15-12.7 27.17-9.55 25.2-6.4 25.2-3.8L25.2-3.8Q25.2 0.25 28.25 0.25L28.25 0.25Q30.1 0.25 32.34-1.2L32.34-1.2Q35.45-3.2 37.25-6.05L37.25-6.05Q37.7-6.8 37.95-6.8L37.95-6.8 38.05-6.7Q38.05-6.5 37.59-5.85L37.59-5.85Q35.8-3.1 32.52-0.85 29.25 1.4 26.4 1.4ZM49.94-9.8L49.94-9.8 50.09-10.75Q50.09-11.55 49.57-12.08 49.04-12.6 48.34-12.6L48.34-12.6Q47.74-6.5 45.39-3.25L45.39-3.25 46.94-3.25Q46.29-2.85 45.97-2.85 45.64-2.85 45.52-2.9 45.39-2.95 45.24-2.95L45.24-2.95Q45.29-2.9 44.97-2.63 44.64-2.35 43.09-1 41.54 0.35 40.19 0.35L40.19 0.35Q38.24 0.35 38.24-2.15L38.24-2.15Q38.24-5.2 40.54-8.4L40.54-8.4Q39.74-10.35 39.74-12.53 39.74-14.7 40.59-16.3L40.59-16.3Q42.24-19.45 44.69-19.45L44.69-19.45Q47.79-19.45 48.29-14.15L48.29-14.15Q50.79-14.05 50.79-11.55L50.79-11.55Q50.79-9.5 50.14-9.5L50.14-9.5Q49.94-9.5 49.94-9.8ZM44.74-18.35L44.74-18.35Q43.14-18.35 41.79-15.2L41.79-15.2Q40.94-13.3 40.94-11.55 40.94-9.8 41.09-8.95L41.09-8.95Q44.14-13.05 47.49-14.05L47.49-14.05Q46.49-18.35 44.74-18.35ZM47.54-12.65L47.54-12.65Q46.44-12.5 44.12-10.63 41.79-8.75 41.24-7.65L41.24-7.65Q42.29-3.85 43.79-3.5L43.79-3.5Q44.99-4.6 46.27-7.85 47.54-11.1 47.54-12.65ZM40.89-7.2L40.89-7.2Q39.24-4.4 39.24-2.78 39.24-1.15 40.34-1.15L40.34-1.15Q41.69-1.15 43.59-3.25L43.59-3.25Q41.94-3.45 40.89-7.2Z" opacity="1" transform="matrix(1,0,0,1,0,0)" fill="#f7fff7" class="wordmark-text-0" data-fill-palette-color="primary" id="text-0"></path></svg></g></svg></g></svg></g></svg></g></svg></g></svg></g></svg></g></svg></g><defs></defs></svg><rect width="395.52" height="247.2" fill="none" stroke="none" visibility="hidden"></rect></g></svg></g></svg>